<svg xmlns="http://www.w3.org/2000/svg" xmlns:xlink="http://www.w3.org/1999/xlink" width="500" zoomAndPan="magnify" viewBox="0 0 375 374.999991" height="500" preserveAspectRatio="xMidYMid meet" version="1.2"><defs><clipPath id="0ee8d9e881"><path d="M 46.816406 151.230469 L 188 151.230469 L 188 276.039062 L 46.816406 276.039062 Z M 46.816406 151.230469 "/></clipPath><clipPath id="52fbf70cfb"><path d="M 121.136719 153.714844 L 187.316406 269.527344 C 188.085938 270.875 188.082031 272.53125 187.300781 273.875 C 186.523438 275.214844 185.089844 276.039062 183.539062 276.039062 L 51.296875 276.039062 C 49.746094 276.039062 48.308594 275.214844 47.53125 273.875 C 46.753906 272.53125 46.746094 270.875 47.515625 269.527344 L 113.695312 153.714844 C 114.457031 152.382812 115.878906 151.558594 117.417969 151.558594 C 118.953125 151.558594 120.375 152.382812 121.136719 153.714844 Z M 121.136719 153.714844 "/></clipPath><clipPath id="4bd1571fe3"><path d="M 61.4375 178.082031 L 173.664062 178.082031 L 173.664062 280.320312 L 61.4375 280.320312 Z M 61.4375 178.082031 "/></clipPath><clipPath id="61a2c3b435"><path d="M 117.417969 178.082031 L 173.394531 280.320312 L 61.4375 280.320312 Z M 117.417969 178.082031 "/></clipPath><clipPath id="ba52b1590b"><path d="M 127 99 L 328.675781 99 L 328.675781 276.039062 L 127 276.039062 Z M 127 99 "/></clipPath><clipPath id="181822053d"><path d="M 231.289062 101.191406 L 327.484375 269.527344 C 328.253906 270.875 328.246094 272.53125 327.46875 273.875 C 326.691406 275.214844 325.253906 276.039062 323.703125 276.039062 L 131.433594 276.039062 C 129.878906 276.039062 128.445312 275.214844 127.667969 273.875 C 126.890625 272.53125 126.882812 270.875 127.652344 269.527344 L 223.847656 101.191406 C 224.609375 99.855469 226.03125 99.03125 227.566406 99.03125 C 229.105469 99.03125 230.527344 99.855469 231.289062 101.191406 Z M 231.289062 101.191406 "/></clipPath></defs><g id="d5d06ad2af"><g clip-rule="nonzero" clip-path="url(#0ee8d9e881)"><g clip-rule="nonzero" clip-path="url(#52fbf70cfb)"><path style=" stroke:none;fill-rule:nonzero;fill:#000000;fill-opacity:1;" d="M 43.796875 147.203125 L 191.253906 147.203125 L 191.253906 276.039062 L 43.796875 276.039062 Z M 43.796875 147.203125 "/></g></g><g clip-rule="nonzero" clip-path="url(#4bd1571fe3)"><g clip-rule="nonzero" clip-path="url(#61a2c3b435)"><path style=" stroke:none;fill-rule:nonzero;fill:#ffffff;fill-opacity:1;" d="M 61.4375 178.082031 L 173.265625 178.082031 L 173.265625 280.320312 L 61.4375 280.320312 Z M 61.4375 178.082031 "/></g></g><g clip-rule="nonzero" clip-path="url(#ba52b1590b)"><g clip-rule="nonzero" clip-path="url(#181822053d)"><path style=" stroke:none;fill-rule:nonzero;fill:#000000;fill-opacity:1;" d="M 123.933594 94.679688 L 331.507812 94.679688 L 331.507812 276.039062 L 123.933594 276.039062 Z M 123.933594 94.679688 "/></g></g></g></svg>